<?xml version="1.0" encoding="UTF-8"?>
<svg xmlns="http://www.w3.org/2000/svg" xmlns:xlink="http://www.w3.org/1999/xlink" viewBox="0 0 841.89 595.28">
  <defs>
    <style>
      .cls-1 {
        fill: #231815;
      }

      .cls-1, .cls-2, .cls-3, .cls-4, .cls-5, .cls-6, .cls-7, .cls-8, .cls-9, .cls-10, .cls-11, .cls-12, .cls-13, .cls-14 {
        stroke-width: 0px;
      }

      .cls-2 {
        fill: #00adbd;
      }

      .cls-3 {
        fill: #e60012;
      }

      .cls-4 {
        fill: url(#_무제_그라디언트_16);
      }

      .cls-5 {
        fill: url(#_무제_그라디언트_15);
      }

      .cls-6 {
        fill: url(#_무제_그라디언트_10);
      }

      .cls-7 {
        fill: url(#_무제_그라디언트_21);
      }

      .cls-8 {
        fill: url(#_무제_그라디언트_20);
      }

      .cls-9 {
        fill: #8ccec1;
      }

      .cls-10 {
        fill: url(#_무제_그라디언트_21-2);
      }

      .cls-11 {
        fill: url(#_무제_그라디언트_20-2);
      }

      .cls-12 {
        fill: url(#_무제_그라디언트_10-2);
      }

      .cls-13 {
        fill: url(#_무제_그라디언트_15-3);
      }

      .cls-14 {
        fill: url(#_무제_그라디언트_15-2);
      }

      /* 3D 효과를 위한 스타일 */
      .layer {
        transform-style: preserve-3d;
        transition: transform 0.3s ease-out;
      }
    </style>
    <radialGradient id="_무제_그라디언트_10" data-name="무제 그라디언트 10" cx="420.94" cy="129.27" fx="420.94" fy="129.27" r="24.44" gradientUnits="userSpaceOnUse">
      <stop offset="0" stop-color="#f6f9e9"/>
      <stop offset=".06" stop-color="#f4e1d4"/>
      <stop offset=".26" stop-color="#f09d9a"/>
      <stop offset=".45" stop-color="#ec6569"/>
      <stop offset=".63" stop-color="#e93943"/>
      <stop offset=".78" stop-color="#e71a28"/>
      <stop offset=".91" stop-color="#e60617"/>
      <stop offset="1" stop-color="#e60012"/>
    </radialGradient>
    <radialGradient id="_무제_그라디언트_10-2" data-name="무제 그라디언트 10" cx="420.78" cy="355.56" fx="420.78" fy="355.56" r="32.95" xlink:href="#_무제_그라디언트_10"/>
    <radialGradient id="_무제_그라디언트_21" data-name="무제 그라디언트 21" cx="143.76" cy="285.71" fx="143.76" fy="285.71" r="59.31" gradientTransform="translate(0 -30.16) scale(1 1.1)" gradientUnits="userSpaceOnUse">
      <stop offset="0" stop-color="#f6f9e9"/>
      <stop offset=".07" stop-color="#f3d7cc"/>
      <stop offset=".21" stop-color="#f09f9b"/>
      <stop offset=".36" stop-color="#ed6e71"/>
      <stop offset=".49" stop-color="#ea464f"/>
      <stop offset=".63" stop-color="#e82734"/>
      <stop offset=".76" stop-color="#e71121"/>
      <stop offset=".89" stop-color="#e60415"/>
      <stop offset="1" stop-color="#e60012"/>
    </radialGradient>
    <radialGradient id="_무제_그라디언트_15" data-name="무제 그라디언트 15" cx="68.22" cy="276.81" fx="68.22" fy="276.81" r="9.96" gradientUnits="userSpaceOnUse">
      <stop offset="0" stop-color="#f6f9e9"/>
      <stop offset=".59" stop-color="#b4ded0"/>
      <stop offset="1" stop-color="#8ccec1"/>
    </radialGradient>
    <radialGradient id="_무제_그라디언트_16" data-name="무제 그라디언트 16" cx="219.07" cy="276.35" fx="219.07" fy="276.35" r="9.96" gradientUnits="userSpaceOnUse">
      <stop offset="0" stop-color="#f6f9e9"/>
      <stop offset=".59" stop-color="#b4ded0"/>
      <stop offset="1" stop-color="#8ccec1"/>
    </radialGradient>
    <radialGradient id="_무제_그라디언트_20" data-name="무제 그라디언트 20" cx="687.79" cy="287.95" fx="687.79" fy="287.95" r="59.31" gradientTransform="translate(0 -30.16) scale(1 1.1)" gradientUnits="userSpaceOnUse">
      <stop offset="0" stop-color="#f6f9e9"/>
      <stop offset=".07" stop-color="#f3d7cc"/>
      <stop offset=".21" stop-color="#f09f9b"/>
      <stop offset=".36" stop-color="#ed6e71"/>
      <stop offset=".49" stop-color="#ea464f"/>
      <stop offset=".63" stop-color="#e82734"/>
      <stop offset=".76" stop-color="#e71121"/>
      <stop offset=".89" stop-color="#e60415"/>
      <stop offset="1" stop-color="#e60012"/>
    </radialGradient>
    <radialGradient id="_무제_그라디언트_15-2" data-name="무제 그라디언트 15" cx="612.25" cy="279.28" fx="612.25" fy="279.28" r="9.96" xlink:href="#_무제_그라디언트_15"/>
    <radialGradient id="_무제_그라디언트_15-3" data-name="무제 그라디언트 15" cx="763.1" cy="278.82" fx="763.1" fy="278.82" xlink:href="#_무제_그라디언트_15"/>
    <radialGradient id="_무제_그라디언트_20-2" data-name="무제 그라디언트 20" cx="143.76" cy="181.43" fx="143.76" fy="181.43" r="9.96" gradientTransform="matrix(1,0,0,1,0,0)" xlink:href="#_무제_그라디언트_20"/>
    <radialGradient id="_무제_그라디언트_21-2" data-name="무제 그라디언트 21" cx="687.68" cy="180.84" fx="687.68" fy="180.84" r="9.96" gradientTransform="matrix(1,0,0,1,0,0)" xlink:href="#_무제_그라디언트_21"/>
  </defs>
  <g id="layer_1" class="layer" transform="translateZ(0)">
    <g>
      <polygon class="cls-3" points="697.63 518.77 144.26 518.77 276.84 360.97 565.1 360.97 697.63 518.77"/>
      <rect class="cls-9" x="144.26" y="518.77" width="553.38" height="23.65"/>
    </g>
  </g>
  <g id="layer_2" class="layer" transform="translateZ(10px)">
    <path class="cls-2" d="M84.59,178.62l319.97-58.36c4.72-.86,9.16,2.51,9.59,7.29l5.28,58.36c.43,4.78-3.33,8.89-8.12,8.89H86.06c-9.94,0-11.24-14.4-1.46-16.18Z"/>
  </g>
  <g id="layer_3" class="layer" transform="translateZ(20px)">
    <path class="cls-2" d="M755.82,178.82l-319.97-58.36c-4.72-.86-9.16,2.51-9.59,7.29l-5.28,58.36c-.43,4.78,3.33,8.89,8.12,8.89h325.25c9.94,0,11.24-14.4,1.46-16.18Z"/>
  </g>
  <g id="layer_4" class="layer" transform="translateZ(10px)">
    <path class="cls-9" d="M468.84,122.82h-.03c-2.61-24.86-22.96-44.21-47.68-44.21s-45.07,19.35-47.68,44.21h-.06l-27.69,312.56h149.82l-26.69-312.56Z"/>
    <g>
      <path class="cls-2" d="M515.02,480.33h-189.13c-13.53,0-23.39-12.83-19.91-25.91l22.4-84.09c2.4-9.02,10.57-15.3,19.91-15.3h143.58c9.27,0,17.4,6.19,19.86,15.13l23.15,84.09c3.61,13.12-6.26,26.07-19.86,26.07Z"/>
      <ellipse class="cls-2" cx="420.13" cy="380.52" rx="92.18" ry="79.41"/>
    </g>
  </g>
  <g id="layer_5" class="layer" transform="translateZ(5px)">
    <rect class="cls-1" x="408.32" y="259.97" width="25.25" height="95.59"/>
    <path class="cls-1" d="M415.8,240.58l-17.79,30.81c-2.07,3.59.52,8.07,4.66,8.07h35.58c4.14,0,6.73-4.49,4.66-8.07l-17.79-30.81c-2.07-3.59-7.25-3.59-9.32,0Z"/>
  </g>
  <g id="layer_6" class="layer" transform="translateZ(5px)">
    <path class="cls-6" d="M445.34,126.83c0-6.09-4.93-11.02-11.02-11.02-.81,0-1.61.09-2.37.26,0-.09.01-.17.01-.26,0-6.09-4.93-11.02-11.02-11.02s-11.02,4.93-11.02,11.02c0,.09.01.17.01.26-.76-.17-1.56-.26-2.37-.26-6.09,0-11.02,4.93-11.02,11.02,0,4.57,2.78,8.49,6.75,10.16-1.03,1.68-1.64,3.64-1.64,5.75,0,6.09,4.93,11.02,11.02,11.02,3.4,0,6.44-1.54,8.46-3.97,2.02,2.42,5.06,3.97,8.46,3.97,6.09,0,11.02-4.93,11.02-11.02,0-2.17-.64-4.19-1.72-5.9,3.8-1.74,6.44-5.56,6.44-10.01Z"/>
  </g>
  <g id="layer_7" class="layer" transform="translateZ(5px)">
    <path class="cls-12" d="M453.67,352.26c0-8.2-6.65-14.85-14.85-14.85-1.1,0-2.17.13-3.2.35,0-.12.02-.23.02-.35,0-8.2-6.65-14.85-14.85-14.85s-14.85,6.65-14.85,14.85c0,.12.02.24.02.35-1.03-.23-2.1-.35-3.2-.35-8.2,0-14.85,6.65-14.85,14.85,0,6.16,3.75,11.44,9.09,13.69-1.39,2.26-2.2,4.91-2.2,7.76,0,8.2,6.65,14.85,14.85,14.85,4.59,0,8.68-2.08,11.41-5.35,2.72,3.27,6.82,5.35,11.41,5.35,8.2,0,14.85-6.65,14.85-14.85,0-2.93-.86-5.65-2.32-7.95,5.12-2.35,8.68-7.5,8.68-13.5Z"/>
  </g>
  <g id="layer_8" class="layer" transform="translateZ(15px)">
    <circle class="cls-11" cx="143.76" cy="181.43" r="9.96"/>
  </g>
  <g id="layer_9" class="layer" transform="translateZ(15px)">
    <circle class="cls-10" cx="687.68" cy="180.84" r="9.96"/>
  </g>
</svg>